<?xml version="1.0" encoding="UTF-8"?>
<svg xmlns="http://www.w3.org/2000/svg" viewBox="0 0 48 48" width="48" height="48" version="1.1">
  <defs>
    <!-- 头部 NCU HOME 天青微渐变 (#38BDF8 -> #0099FF) -->
    <linearGradient id="headGrad" x1="0%" y1="0%" x2="100%" y2="100%">
      <stop offset="0%" stop-color="#38BDF8" />
      <stop offset="100%" stop-color="#0099FF" />
    </linearGradient>

    <!-- 蛇身方块微阴影 (层叠微立体软影) -->
    <filter id="tileShadow" x="-20%" y="-20%" width="140%" height="140%">
      <feDropShadow dx="0" dy="1" stdDeviation="0.8" flood-color="#0099FF" flood-opacity="0.22" />
    </filter>
  </defs>

  <!-- 1. NCU HOME 纯白超椭圆底座与极细浅灰边线 -->
  <rect x="1.5" y="1.5" width="45" height="45" rx="13" fill="#FFFFFF" stroke="#E2E8F0" stroke-width="1.2" />

  <!-- 2. 南大家园官方 1:1 等轴测 3D 魔方品牌微标 (官方原版像素级复刻) -->
  <g fill="none" transform="translate(4.5, 4.2) scale(0.23) translate(-15, -9)">
    <!-- 1. 三面等轴测底板与开槽底色 -->
    <polygon points="38,33.5 16,21 16,46 38,59" fill="#FFF4D5" />
    <path d="M 38,38 L 29,33.5 C 25,32.5 23.5,35 23.5,39.5 C 23.5,43 25,44.5 28,46 L 38,51.5 Z" fill="#FFEEEC" />
    <path fill-rule="evenodd" clip-rule="evenodd" d="M 38,33.5 L 59.5,21 L 59.5,46 L 38,59 Z M 44.5,56 L 44.5,40 A 4 4 0 0 1 52.5,40 L 52.5,49 Z" fill="#FFEEEC" />
    <path d="M 38,9.5 L 16,21 L 38,33.5 L 44,29 C 39,26.5 33,25 33,22.5 C 33,19 38,17 40,15 C 41.5,13 41,11 38,9.5 Z M 44,29 L 59.5,21 L 53,17.5 C 47.5,20 44,24 44,29 Z" fill="#E5F3FF" />

    <!-- 2. 纯线条线框 (Line Art) -->
    <g stroke="#FFBB00" stroke-width="3.2" stroke-linecap="round" stroke-linejoin="round">
      <polyline points="16,21 16,46 38,59" />
      <line x1="38" y1="33.5" x2="38" y2="51.5" />
      <path d="M 38,38 L 29,33.5 C 25,32.5 23.5,35 23.5,39.5 C 23.5,43 25,44.5 28,46 L 38,51.5" fill="none" />
    </g>
    <g stroke="#FD675A" stroke-width="3.2" stroke-linecap="round" stroke-linejoin="round">
      <polyline points="38,33.5 59.5,21 59.5,46 38,59" />
      <line x1="38" y1="51.5" x2="38" y2="59" />
      <path d="M 38,59 L 44.5,54 L 44.5,40 A 4 4 0 0 1 52.5,40 L 52.5,49" fill="none" />
    </g>
    <g stroke="#31A0FE" stroke-width="3.2" stroke-linecap="round" stroke-linejoin="round">
      <polyline points="38,9.5 16,21 38,33.5" />
      <path d="M 38,9.5 C 40.5,11.5 42,13.5 39.5,15.5 C 36.5,18 32,19.5 32,22.5 C 32,25.5 38,26.5 43,23.5 C 48,20.5 53.5,18.5 59.5,21" fill="none" />
    </g>
  </g>

  <!-- 3. 灵动曲折层叠方块贪吃蛇 (第3节往上提、第5节往下沉，蜿蜒生动) -->
  <!-- 节0: 蛇尾 (左下方起始，浅淡冰蓝) -->
  <rect x="7.5" y="33" width="8" height="8" rx="2.4" fill="#BAE6FD" stroke="#FFFFFF" stroke-width="0.8" filter="url(#tileShadow)" />

  <!-- 节1: 底横微抬节 (天青淡蓝，平滑向上微过渡) -->
  <rect x="13.5" y="31" width="8" height="8" rx="2.4" fill="#93C5FD" stroke="#FFFFFF" stroke-width="0.8" filter="url(#tileShadow)" />

  <!-- 节2: [尾巴第3个方块 往上提一点] (清澈水蓝，打破死板直线) -->
  <rect x="19.5" y="26.5" width="8" height="8" rx="2.4" fill="#60A5FA" stroke="#FFFFFF" stroke-width="0.8" filter="url(#tileShadow)" />

  <!-- 节3: 中枢过渡节 (明亮天青蓝，灵动折转) -->
  <rect x="14" y="21" width="8" height="8" rx="2.4" fill="#38BDF8" stroke="#FFFFFF" stroke-width="0.8" filter="url(#tileShadow)" />

  <!-- 节4: [尾巴第5个方块 往下沉一点] (纯正天蓝，打破顶线生硬感) -->
  <rect x="9.5" y="17.5" width="8" height="8" rx="2.4" fill="#0284C7" stroke="#FFFFFF" stroke-width="0.8" filter="url(#tileShadow)" />

  <!-- 节5: 顶横向上攀升节 (深天蓝) -->
  <rect x="16.5" y="14.5" width="8" height="8" rx="2.4" fill="#0099FF" stroke="#FFFFFF" stroke-width="0.8" filter="url(#tileShadow)" />

  <!-- 节6: 蛇头 (右上方顶层方块，NCU HOME 渐变，昂首朝右) -->
  <rect x="24" y="14.5" width="8.8" height="8.8" rx="2.6" fill="url(#headGrad)" stroke="#FFFFFF" stroke-width="0.8" filter="url(#tileShadow)" />

  <!-- 蛇头灵动双眸 (专注注视右上前方红苹果) -->
  <!-- 上眼 -->
  <circle cx="29.8" cy="17.2" r="1.4" fill="#FFFFFF" />
  <circle cx="30.3" cy="17.2" r="0.75" fill="#0F172A" />
  <circle cx="30.0" cy="16.8" r="0.3" fill="#FFFFFF" />
  <!-- 下眼 -->
  <circle cx="29.8" cy="21.0" r="1.4" fill="#FFFFFF" />
  <circle cx="30.3" cy="21.0" r="0.75" fill="#0F172A" />
  <circle cx="30.0" cy="20.6" r="0.3" fill="#FFFFFF" />

  <!-- 4. 游戏内 1:1 纯正多巴胺红苹果 (纯平高亮 + 水滴晶莹月牙高光 + 棕梗翠叶) -->
  <circle cx="38.5" cy="18.5" r="3.6" fill="#EF4444" />
  <circle cx="37.2" cy="17.2" r="1.1" fill="#FFFFFF" opacity="0.65" />
  <!-- 果梗 -->
  <rect x="38.0" y="13.8" width="1.0" height="2.0" rx="0.5" fill="#78350F" />
  <!-- 翠绿嫩叶 -->
  <ellipse cx="40.2" cy="14.8" rx="1.6" ry="1.0" transform="rotate(-25 40.2 14.8)" fill="#10B981" />

  <!-- 5. 游戏内 1:1 金色幸运果与南大家园经典圆润四芒星曜 (双层光晕 + 晶莹高光核) -->
  <circle cx="37.5" cy="35.5" r="4.8" fill="#F59E0B" opacity="0.22" />
  <circle cx="37.5" cy="35.5" r="3.2" fill="#F59E0B" />
  <path d="M 37.5 32.5 Q 37.5 35.5 40.5 35.5 Q 37.5 35.5 37.5 38.5 Q 37.5 35.5 34.5 35.5 Q 37.5 35.5 37.5 32.5 Z" fill="#FEF3C7" />
  <circle cx="37.5" cy="35.5" r="0.9" fill="#FFFFFF" />
</svg>
