<?xml version="1.0" encoding="UTF-8"?>
<svg xmlns="http://www.w3.org/2000/svg" viewBox="0 0 48 48" width="48" height="48" version="1.1">
  <defs>
    <!-- 头部 NCU HOME 天青微渐变 (#38BDF8 -> #0099FF) -->
    <linearGradient id="headGrad" x1="0%" y1="0%" x2="100%" y2="100%">
      <stop offset="0%" stop-color="#38BDF8" />
      <stop offset="100%" stop-color="#0099FF" />
    </linearGradient>

    <!-- 蛇身方块微阴影 (层叠微立体软影) -->
    <filter id="tileShadow" x="-20%" y="-20%" width="140%" height="140%">
      <feDropShadow dx="0" dy="1" stdDeviation="0.8" flood-color="#0099FF" flood-opacity="0.22" />
    </filter>
  </defs>

  <!-- 1. NCU HOME 纯白超椭圆底座与极细浅灰边线 -->
  <rect x="1.5" y="1.5" width="45" height="45" rx="13" fill="#FFFFFF" stroke="#E2E8F0" stroke-width="1.2" />

  <!-- 2. 南大家园官方 1:1 等轴测 3D 魔方品牌微标 (纯线条 Line Art 原版) -->
  <g transform="translate(6.2, 5.8) scale(0.115)">
    <!-- 三面浅色实体底板 (大面积通透留白) -->
    <path d="M 50 12 L 83 31 L 50 50 L 17 31 Z" fill="#F0F9FF" />
    <path d="M 17 31 L 50 50 L 50 88 L 17 69 Z" fill="#FFFBEB" />
    <path d="M 50 50 L 83 31 L 83 69 L 50 88 Z" fill="#FFF1F2" />

    <!-- 顶面 U (天蓝 #0099FF 单线条) -->
    <path d="M 50 12 L 17 31 L 50 50" stroke="#0099FF" stroke-width="5" stroke-linecap="round" stroke-linejoin="round" fill="none" />
    <path d="M 74 26 L 58 35 Q 46 41 46 31 Q 46 22 62 19" stroke="#0099FF" stroke-width="5" stroke-linecap="round" stroke-linejoin="round" fill="none" />

    <!-- 左面 C (橙黄 #F59E0B 单线条) -->
    <path d="M 50 50 L 17 31 L 17 69 L 50 88" stroke="#F59E0B" stroke-width="5" stroke-linecap="round" stroke-linejoin="round" fill="none" />
    <path d="M 50 57 L 35 60 Q 25 66 35 72 L 50 78" stroke="#F59E0B" stroke-width="5" stroke-linecap="round" stroke-linejoin="round" fill="none" />

    <!-- 右面 n (珊瑚粉红 #FF5A5F 单线条) -->
    <path d="M 50 88 L 50 50 L 83 31 L 83 69" stroke="#FF5A5F" stroke-width="5" stroke-linecap="round" stroke-linejoin="round" fill="none" />
    <path d="M 62 81 L 62 68 Q 67.5 59 73 64 L 73 75" stroke="#FF5A5F" stroke-width="5" stroke-linecap="round" stroke-linejoin="round" fill="none" />
  </g>

  <!-- 3. 灵动曲折层叠方块贪吃蛇 (第3节往上提、第5节往下沉，蜿蜒生动) -->
  <!-- 节0: 蛇尾 (左下方起始，浅淡冰蓝) -->
  <rect x="7.5" y="33" width="8" height="8" rx="2.4" fill="#BAE6FD" stroke="#FFFFFF" stroke-width="0.8" filter="url(#tileShadow)" />

  <!-- 节1: 底横微抬节 (天青淡蓝，平滑向上微过渡) -->
  <rect x="13.5" y="31" width="8" height="8" rx="2.4" fill="#93C5FD" stroke="#FFFFFF" stroke-width="0.8" filter="url(#tileShadow)" />

  <!-- 节2: [尾巴第3个方块 往上提一点] (清澈水蓝，打破死板直线) -->
  <rect x="19.5" y="26.5" width="8" height="8" rx="2.4" fill="#60A5FA" stroke="#FFFFFF" stroke-width="0.8" filter="url(#tileShadow)" />

  <!-- 节3: 中枢过渡节 (明亮天青蓝，灵动折转) -->
  <rect x="14" y="21" width="8" height="8" rx="2.4" fill="#38BDF8" stroke="#FFFFFF" stroke-width="0.8" filter="url(#tileShadow)" />

  <!-- 节4: [尾巴第5个方块 往下沉一点] (纯正天蓝，打破顶线生硬感) -->
  <rect x="9.5" y="17.5" width="8" height="8" rx="2.4" fill="#0284C7" stroke="#FFFFFF" stroke-width="0.8" filter="url(#tileShadow)" />

  <!-- 节5: 顶横向上攀升节 (深天蓝) -->
  <rect x="16.5" y="14.5" width="8" height="8" rx="2.4" fill="#0099FF" stroke="#FFFFFF" stroke-width="0.8" filter="url(#tileShadow)" />

  <!-- 节6: 蛇头 (右上方顶层方块，NCU HOME 渐变，昂首朝右) -->
  <rect x="24" y="14.5" width="8.8" height="8.8" rx="2.6" fill="url(#headGrad)" stroke="#FFFFFF" stroke-width="0.8" filter="url(#tileShadow)" />

  <!-- 蛇头灵动双眸 (专注注视右上前方红苹果) -->
  <!-- 上眼 -->
  <circle cx="29.8" cy="17.2" r="1.4" fill="#FFFFFF" />
  <circle cx="30.3" cy="17.2" r="0.75" fill="#0F172A" />
  <circle cx="30.0" cy="16.8" r="0.3" fill="#FFFFFF" />
  <!-- 下眼 -->
  <circle cx="29.8" cy="21.0" r="1.4" fill="#FFFFFF" />
  <circle cx="30.3" cy="21.0" r="0.75" fill="#0F172A" />
  <circle cx="30.0" cy="20.6" r="0.3" fill="#FFFFFF" />

  <!-- 4. 游戏内 1:1 纯正多巴胺红苹果 (纯平高亮 + 水滴晶莹月牙高光 + 棕梗翠叶) -->
  <circle cx="38.5" cy="18.5" r="3.6" fill="#EF4444" />
  <circle cx="37.2" cy="17.2" r="1.1" fill="#FFFFFF" opacity="0.65" />
  <!-- 果梗 -->
  <rect x="38.0" y="13.8" width="1.0" height="2.0" rx="0.5" fill="#78350F" />
  <!-- 翠绿嫩叶 -->
  <ellipse cx="40.2" cy="14.8" rx="1.6" ry="1.0" transform="rotate(-25 40.2 14.8)" fill="#10B981" />

  <!-- 5. 游戏内 1:1 金色幸运果与南大家园经典圆润四芒星曜 (双层光晕 + 晶莹高光核) -->
  <circle cx="37.5" cy="35.5" r="4.8" fill="#F59E0B" opacity="0.22" />
  <circle cx="37.5" cy="35.5" r="3.2" fill="#F59E0B" />
  <path d="M 37.5 32.5 Q 37.5 35.5 40.5 35.5 Q 37.5 35.5 37.5 38.5 Q 37.5 35.5 34.5 35.5 Q 37.5 35.5 37.5 32.5 Z" fill="#FEF3C7" />
  <circle cx="37.5" cy="35.5" r="0.9" fill="#FFFFFF" />
</svg>
